<svg viewBox="0 0 512 512" xmlns="http://www.w3.org/2000/svg">
  <path fill="#E53935" d="M256 64C141.1 64 48 157.1 48 272s93.1 208 208 208 208-93.1 208-208S370.9 64 256 64zm0 0"/>
  <path fill="#FFFFFF" d="M256 128c-79.5 0-144 64.5-144 144s64.5 144 144 144 144-64.5 144-144-64.5-144-144-144zm0 0"/>
  <path fill="#C62828" d="M330 202c-15.3-8.8-34.7-8.8-50 0l-24 13.9-24-13.9c-15.3-8.8-34.7-8.8-50 0-15.3 8.8-24.7 25.1-24.7 42.6v55.8c0 17.5 9.4 33.8 24.7 42.6 15.3 8.8 34.7 8.8 50 0l24-13.9 24 13.9c15.3 8.8 34.7 8.8 50 0 15.3-8.8 24.7-25.1 24.7-42.6v-55.8c0-17.5-9.4-33.8-24.7-42.6zm0 0"/>
  <path fill="#B71C1C" d="M300 230v50l-22 12.7-22-12.7v-50l22-12.7 22 12.7zm0 0"/>
</svg>